<svg xmlns="http://www.w3.org/2000/svg" width="100" height="100" viewBox="0 0 100 100">
  <defs>
    <linearGradient id="gradient1" x1="0%" y1="0%" x2="100%" y2="100%">
      <stop offset="0%" stop-color="#36d1dc" />
      <stop offset="100%" stop-color="#5654ff" />
    </linearGradient>
    <linearGradient id="gradient2" x1="0%" y1="0%" x2="100%" y2="100%">
      <stop offset="0%" stop-color="#ff4b6e" />
      <stop offset="100%" stop-color="#ff9b9b" />
    </linearGradient>
    <filter id="glow1" x="-20%" y="-20%" width="140%" height="140%">
      <feGaussianBlur stdDeviation="2" result="blur" />
      <feComposite in="SourceGraphic" in2="blur" operator="over" />
    </filter>
    <filter id="glow2" x="-20%" y="-20%" width="140%" height="140%">
      <feGaussianBlur stdDeviation="2" result="blur" />
      <feComposite in="SourceGraphic" in2="blur" operator="over" />
    </filter>
  </defs>
  
  <!-- Background -->
  <rect width="100" height="100" rx="10" fill="#0c0c14" />
  
  <!-- Grid lines -->
  <line x1="33" y1="20" x2="33" y2="80" stroke="#1a1a2e" stroke-width="1" />
  <line x1="66" y1="20" x2="66" y2="80" stroke="#1a1a2e" stroke-width="1" />
  <line x1="20" y1="33" x2="80" y2="33" stroke="#1a1a2e" stroke-width="1" />
  <line x1="20" y1="66" x2="80" y2="66" stroke="#1a1a2e" stroke-width="1" />
  
  <!-- Circle in top left -->
  <circle cx="33" cy="33" r="10" fill="none" stroke="url(#gradient1)" stroke-width="2.5" filter="url(#glow1)" />
  
  <!-- Cross in center -->
  <line x1="45" y1="45" x2="55" y2="55" stroke="url(#gradient2)" stroke-width="2.5" stroke-linecap="round" filter="url(#glow2)" />
  <line x1="55" y1="45" x2="45" y2="55" stroke="url(#gradient2)" stroke-width="2.5" stroke-linecap="round" filter="url(#glow2)" />
  
  <!-- Cross in bottom right -->
  <line x1="78" y1="78" x2="88" y2="88" stroke="url(#gradient2)" stroke-width="2.5" stroke-linecap="round" filter="url(#glow2)" transform="translate(-22 -22)" />
  <line x1="88" y1="78" x2="78" y2="88" stroke="url(#gradient2)" stroke-width="2.5" stroke-linecap="round" filter="url(#glow2)" transform="translate(-22 -22)" />
  
  <!-- Circle in bottom left -->
  <circle cx="33" cy="66" r="10" fill="none" stroke="url(#gradient1)" stroke-width="2.5" filter="url(#glow1)" />
</svg> 